<svg width="21" height="21" viewBox="0 0 21 21" fill="none" xmlns="http://www.w3.org/2000/svg">
<path d="M19 12.66V18C19 18.5304 18.7893 19.0391 18.4142 19.4142C18.0391 19.7893 17.5304 20 17 20H3C2.46957 20 1.96086 19.7893 1.58579 19.4142C1.21071 19.0391 1 18.5304 1 18V4C1 3.46957 1.21071 2.96086 1.58579 2.58579C1.96086 2.21071 2.46957 2 3 2H8.34" stroke="#929FB0" stroke-width="2" stroke-linecap="round" stroke-linejoin="round"/>
<path d="M16.2929 0.707106C16.6834 0.316582 17.3166 0.316583 17.7071 0.707107L20.2929 3.29289C20.6834 3.68342 20.6834 4.31658 20.2929 4.70711L11.2929 13.7071C11.1054 13.8946 10.851 14 10.5858 14H7.2C7.08954 14 7 13.9105 7 13.8V10.4142C7 10.149 7.10536 9.89464 7.29289 9.70711L16.2929 0.707106Z" fill="#929FB0"/>
</svg>
