<svg width="18" height="20" viewBox="0 0 18 20" fill="none" xmlns="http://www.w3.org/2000/svg">
<g clip-path="url(#clip0)">
<path d="M8.99896 3.18469C9.87839 3.18469 10.5913 2.47177 10.5913 1.59234C10.5913 0.712917 9.87839 0 8.99896 0C8.11953 0 7.40662 0.712917 7.40662 1.59234C7.40662 2.47177 8.11953 3.18469 8.99896 3.18469Z" fill="#929FB0"/>
<path d="M8.99885 19.9998C9.47203 19.9999 9.92904 19.8276 10.2845 19.5152C10.6399 19.2029 10.8694 18.7718 10.9301 18.3025C10.9339 18.2713 10.931 18.2397 10.9216 18.2097C10.9122 18.1797 10.8966 18.1521 10.8758 18.1286C10.8549 18.1051 10.8293 18.0863 10.8006 18.0734C10.772 18.0605 10.7409 18.0539 10.7095 18.054H7.28688C7.25551 18.0539 7.22449 18.0605 7.19588 18.0734C7.16728 18.0863 7.14175 18.1051 7.12099 18.1286C7.10024 18.1521 7.08474 18.1798 7.07552 18.2098C7.06631 18.2398 7.0636 18.2714 7.06757 18.3025C7.12802 18.7719 7.35746 19.2032 7.71294 19.5156C8.06843 19.828 8.52559 20.0002 8.99885 19.9998Z" fill="#929FB0"/>
<path d="M16.2061 14.2567C15.916 14.0317 15.6759 13.7488 15.5013 13.4258C15.3267 13.1029 15.2213 12.7472 15.1919 12.3812L14.6762 6.79872C14.5756 5.36168 13.9338 4.01624 12.8803 3.03375C11.8268 2.05126 10.4399 1.50482 8.99932 1.50464C7.55853 1.50449 6.1713 2.05077 5.11749 3.0333C4.06368 4.01582 3.42172 5.36145 3.32111 6.79872L2.80672 12.3812C2.77763 12.7472 2.67239 13.1031 2.49774 13.4261C2.3231 13.749 2.08291 14.032 1.79257 14.2567C1.44569 14.5318 1.16547 14.8818 0.972827 15.2804C0.780184 15.679 0.680101 16.1161 0.680054 16.5588H0.680054C0.680054 16.6762 0.726686 16.7888 0.809692 16.8718C0.892698 16.9548 1.00528 17.0014 1.12267 17.0014H16.8746C16.992 17.0014 17.1046 16.9548 17.1876 16.8718C17.2706 16.7888 17.3172 16.6762 17.3172 16.5588C17.3176 16.1161 17.2179 15.6791 17.0255 15.2804C16.833 14.8817 16.5529 14.5318 16.2061 14.2567Z" fill="#929FB0"/>
</g>
<defs>
<clipPath id="clip0">
<rect width="16.6372" height="20" fill="white" transform="translate(0.680054)"/>
</clipPath>
</defs>
</svg>
